<mxfile host="app.diagrams.net" modified="2023-07-13T12:09:38.900Z" agent="Mozilla/5.0 (Windows NT 10.0; Win64; x64) AppleWebKit/537.36 (KHTML, like Gecko) Chrome/114.0.0.0 Safari/537.36 Edg/114.0.1823.67" etag="mCeZRUTsR0U59XpCI0fV" version="21.6.2" type="github">
  <diagram name="Page-1" id="I0pT1-4ORaF4-5iv4eMg">
    <mxGraphModel dx="2954" dy="1124" grid="1" gridSize="10" guides="1" tooltips="1" connect="1" arrows="1" fold="1" page="1" pageScale="1" pageWidth="850" pageHeight="1100" math="0" shadow="0">
      <root>
        <mxCell id="0" />
        <mxCell id="1" parent="0" />
        <mxCell id="t-XoGln9P8-zk_SiI_6q-3" style="edgeStyle=orthogonalEdgeStyle;rounded=0;orthogonalLoop=1;jettySize=auto;html=1;exitX=1;exitY=1;exitDx=0;exitDy=0;entryX=0;entryY=0.5;entryDx=0;entryDy=0;" edge="1" parent="1" source="t-XoGln9P8-zk_SiI_6q-1" target="t-XoGln9P8-zk_SiI_6q-2">
          <mxGeometry relative="1" as="geometry">
            <mxPoint x="330" y="570" as="targetPoint" />
            <Array as="points">
              <mxPoint x="240" y="460" />
            </Array>
          </mxGeometry>
        </mxCell>
        <mxCell id="t-XoGln9P8-zk_SiI_6q-1" value="" style="swimlane;startSize=0;" vertex="1" parent="1">
          <mxGeometry x="40" y="360" width="200" height="200" as="geometry" />
        </mxCell>
        <mxCell id="t-XoGln9P8-zk_SiI_6q-2" value="" style="swimlane;startSize=0;" vertex="1" parent="1">
          <mxGeometry x="570" y="360" width="200" height="200" as="geometry" />
        </mxCell>
      </root>
    </mxGraphModel>
  </diagram>
</mxfile>
